<?xml version="1.0" standalone="no"?>
<!DOCTYPE svg PUBLIC "-//W3C//DTD SVG 20010904//EN"
 "http://www.w3.org/TR/2001/REC-SVG-20010904/DTD/svg10.dtd">
<svg version="1.0" xmlns="http://www.w3.org/2000/svg"
 width="1000.000000pt" height="563.000000pt" viewBox="0 0 1000.000000 563.000000"
 preserveAspectRatio="xMidYMid meet">

<g transform="translate(0.000000,563.000000) scale(0.100000,-0.100000)"
fill="#000000" stroke="none">
<path d="M2225 4435 c-383 -53 -729 -300 -812 -580 -49 -165 -53 -280 -13
-407 37 -117 83 -173 248 -310 82 -68 157 -134 168 -148 16 -21 19 -46 22
-160 2 -78 -1 -141 -7 -150 -8 -12 -23 -8 -93 27 -130 66 -198 84 -327 90
-129 6 -192 -4 -289 -48 -153 -69 -275 -205 -333 -371 -26 -74 -29 -96 -29
-208 0 -112 3 -134 29 -208 33 -96 79 -175 137 -241 68 -76 599 -513 667 -548
86 -45 165 -63 278 -63 116 0 228 29 314 81 57 34 143 120 162 162 6 12 18 39
26 59 10 21 24 38 33 38 8 0 48 -27 88 -60 141 -117 315 -204 471 -237 60 -12
404 -15 2525 -15 2599 0 2515 -2 2753 47 456 94 808 262 948 451 92 124 159
312 159 444 0 127 -62 259 -155 329 -58 44 -49 60 72 130 39 22 73 47 76 53 9
27 -130 248 -227 361 -57 67 -102 106 -425 377 -317 266 -370 300 -546 348
-96 27 -315 23 -433 -7 -79 -20 -95 -21 -110 -10 -9 8 -127 106 -261 217 -136
114 -264 212 -288 223 -75 32 -142 35 -222 9 -201 -64 -280 -291 -161 -464 23
-32 39 -65 36 -73 -6 -15 -65 -43 -92 -43 -9 0 -34 14 -56 31 -21 18 -76 50
-121 73 l-82 42 -6 100 c-6 110 -14 129 -79 178 -19 15 -64 52 -100 82 -36 30
-88 74 -116 97 -28 23 -86 72 -129 110 -43 37 -85 67 -94 67 -9 0 -70 -18
-136 -39 -134 -44 -417 -133 -483 -152 -66 -19 -68 -34 -16 -125 52 -92 63
-132 64 -231 0 -78 -6 -86 -55 -71 -16 5 -69 8 -117 6 -58 -1 -91 2 -102 11
-8 7 -19 10 -25 7 -5 -3 -11 -2 -13 3 -1 5 -82 -16 -178 -46 -96 -30 -218 -68
-270 -84 -89 -28 -141 -31 -155 -9 -10 17 -108 61 -192 87 -80 24 -104 27
-273 29 -102 1 -190 2 -197 3 -6 1 -53 38 -105 84 -51 46 -167 145 -257 222
-90 76 -182 155 -205 177 -220 205 -553 300 -891 253z m575 -100 c17 -9 30
-18 30 -21 0 -4 -59 23 -69 32 -10 9 13 3 39 -11z m-150 -45 c284 -75 436
-206 521 -450 31 -89 33 -103 33 -230 1 -130 -1 -138 -32 -215 -44 -105 -65
-138 -133 -210 l-58 -60 57 -30 c81 -42 188 -153 240 -247 23 -43 46 -78 51
-78 5 0 38 20 73 44 79 52 148 79 377 146 194 57 232 73 279 122 47 49 52 94
17 153 -38 65 -73 78 -210 79 -98 1 -115 -2 -160 -24 -45 -23 -50 -28 -47 -55
9 -78 5 -101 -20 -141 -48 -75 -165 -108 -233 -65 -65 40 -82 64 -90 129 -10
86 1 139 41 198 80 118 225 191 429 214 137 15 202 12 295 -13 197 -55 270
-112 324 -252 18 -47 20 -89 25 -660 6 -551 8 -614 24 -655 10 -24 15 -50 13
-57 -4 -10 -42 -13 -156 -13 -146 0 -198 9 -184 31 3 5 3 16 0 24 -4 12 -17 8
-63 -19 -123 -72 -300 -109 -415 -87 -96 19 -217 82 -293 152 -59 56 -85 67
-85 35 0 -14 -48 -82 -103 -146 -83 -96 -220 -176 -351 -205 -93 -21 -312 -16
-386 8 -167 54 -309 140 -456 275 -254 235 -336 304 -417 348 -46 25 -62 28
-143 29 -82 0 -94 -3 -132 -28 -48 -31 -76 -81 -85 -150 -8 -61 23 -127 81
-174 65 -52 109 -42 110 25 1 52 20 96 55 130 40 39 75 52 135 52 158 -1 243
-212 152 -374 -71 -124 -219 -192 -405 -185 -75 4 -101 9 -155 35 -120 57
-221 171 -260 293 -11 35 -25 102 -30 150 -11 91 -11 91 44 241 38 102 168
227 280 269 30 11 91 25 137 30 75 10 89 9 166 -14 47 -13 110 -36 141 -50 70
-32 204 -122 259 -174 23 -21 44 -37 46 -34 3 2 6 250 6 551 2 568 -2 632 -40
697 -11 18 -16 36 -11 39 27 16 377 126 388 122 11 -4 14 -59 14 -280 l0 -276
23 -4 c12 -3 54 -7 92 -10 201 -16 363 67 437 221 25 53 30 75 31 151 1 82 -1
93 -35 165 -63 132 -158 202 -316 233 -107 22 -259 19 -352 -5 -219 -57 -354
-174 -384 -333 -6 -35 -5 -39 33 -63 42 -29 81 -103 81 -158 0 -45 -40 -117
-80 -143 -130 -86 -296 17 -329 206 -18 99 -16 168 5 245 78 280 368 498 726
544 35 5 115 9 178 10 98 1 132 -4 230 -29z m-865 -103 c-16 -12 -66 -53 -110
-91 -44 -38 -66 -55 -50 -36 43 48 92 91 139 122 49 33 63 37 21 5z m-105 -31
c0 -2 -8 -10 -17 -17 -16 -13 -17 -12 -4 4 13 16 21 21 21 13z m4034 -107 c4
-49 6 -480 6 -956 -1 -476 2 -869 7 -873 33 -30 239 -54 334 -39 155 25 262
112 319 263 60 157 67 411 16 561 -37 107 -88 196 -129 228 -37 28 -94 42
-132 33 -21 -5 -25 -12 -25 -42 0 -44 -33 -109 -66 -131 -42 -27 -113 -41
-154 -31 -20 5 -57 27 -81 48 l-44 38 0 93 c0 114 5 134 47 187 77 97 183 143
337 145 103 2 152 -9 256 -58 151 -71 285 -285 327 -520 14 -82 16 -308 4
-415 -11 -93 -63 -253 -111 -342 -51 -96 -171 -219 -259 -269 -202 -112 -465
-136 -714 -64 -79 23 -252 82 -259 88 -1 2 -4 426 -5 942 l-3 940 -27 70 c-21
54 -25 72 -15 78 12 9 333 114 353 116 7 1 14 -33 18 -90z m-4074 68 c0 -2
-10 -12 -22 -23 l-23 -19 19 23 c18 21 26 27 26 19z m5370 -135 c58 -29 84
-64 101 -139 11 -50 -21 -133 -64 -165 -94 -71 -199 -59 -273 33 -44 54 -52
114 -23 171 35 71 72 101 144 119 48 11 57 10 115 -19z m-220 13 c0 -2 -10
-10 -22 -16 -21 -11 -22 -11 -9 4 13 16 31 23 31 12z m-460 -210 c0 -14 -4
-25 -10 -25 -5 0 -10 11 -10 25 0 14 5 25 10 25 6 0 10 -11 10 -25z m-2120
-175 c18 -12 2 -12 -25 0 -13 6 -15 9 -5 9 8 0 22 -4 30 -9z m4030 -5 c14 -8
21 -14 15 -14 -5 0 -21 6 -35 14 -14 8 -20 14 -15 14 6 0 21 -6 35 -14z
m-3050 -38 c69 -25 98 -47 130 -98 29 -44 34 -62 37 -128 4 -73 4 -77 -27
-114 -86 -102 -218 -100 -287 4 -21 32 -32 39 -52 37 -30 -4 -96 -85 -105
-131 -3 -16 -6 -277 -6 -579 0 -469 2 -554 15 -585 12 -29 13 -38 3 -45 -7 -4
-98 -7 -203 -5 -183 2 -190 3 -187 22 20 160 22 256 20 776 l-3 584 -32 65
c-17 36 -29 68 -27 72 3 4 44 19 92 33 48 15 119 38 159 51 107 36 113 34 113
-27 0 -49 1 -51 19 -38 156 113 246 141 341 106z m2933 -13 c152 -42 278 -123
380 -243 87 -101 172 -234 161 -252 -3 -5 -33 -25 -67 -44 -34 -20 -82 -49
-107 -64 -25 -15 -225 -135 -445 -266 -220 -132 -410 -247 -422 -256 l-23 -17
29 -39 c36 -50 123 -124 179 -152 51 -26 194 -46 271 -38 77 8 168 56 229 121
29 30 52 63 52 73 0 10 -16 38 -35 62 -42 53 -49 75 -43 146 4 41 12 64 39 99
106 140 282 120 367 -43 30 -58 31 -201 3 -282 -49 -139 -93 -211 -179 -291
-202 -187 -534 -256 -789 -163 -157 56 -311 176 -402 311 -52 77 -111 219
-128 313 -25 131 -22 343 5 454 82 330 330 552 657 587 127 13 174 11 268 -16z
m-994 -782 c1 -522 4 -757 12 -789 10 -37 9 -47 -2 -54 -8 -5 -93 -8 -189 -6
l-175 2 3 25 c13 107 18 332 18 810 l-1 555 -29 57 c-17 32 -28 60 -25 62 3 3
88 32 189 65 182 59 185 59 192 38 3 -12 6 -356 7 -765z m-5689 718 c0 -13 -1
-13 -10 0 -5 8 -10 22 -10 30 0 13 1 13 10 0 5 -8 10 -22 10 -30z m-405 -850
c-3 -5 -12 -10 -18 -10 -7 0 -6 4 3 10 19 12 23 12 15 0z m60 2 c-98 -82 -126
-103 -110 -82 16 23 102 90 115 90 2 0 0 -4 -5 -8z m-115 -46 c0 -2 -8 -10
-17 -17 -16 -13 -17 -12 -4 4 13 16 21 21 21 13z m8360 -518 c0 -25 -16 -22
-24 5 -11 41 -7 54 9 33 8 -11 15 -28 15 -38z m-757 -170 c-5 -65 -9 -78 -23
-78 -5 0 -10 22 -10 49 0 28 -4 53 -10 56 -19 12 -10 25 19 25 28 0 28 0 24
-52z m78 10 l22 -43 18 43 c28 66 49 56 49 -23 0 -69 -17 -90 -22 -27 l-3 37
-17 -37 c-9 -21 -20 -38 -23 -38 -3 0 -14 15 -25 33 l-20 32 0 -33 c0 -53 -24
-33 -28 23 -6 86 15 100 49 33z m-4741 -197 c0 -40 0 -40 -42 -43 l-43 -3 -5
-195 c-3 -107 -8 -194 -12 -192 -5 1 -24 2 -43 2 l-35 0 0 195 0 195 -45 0
-45 0 0 40 0 40 135 0 135 0 0 -39z m110 -26 c0 -59 2 -65 18 -57 72 37 156
11 191 -60 18 -38 21 -62 21 -167 l0 -122 -47 3 -48 3 -3 119 c-4 146 -9 158
-65 154 -58 -4 -67 -26 -67 -165 0 -61 -3 -114 -7 -116 -5 -2 -25 -2 -45 0
l-38 5 0 234 0 234 45 0 45 0 0 -65z m840 45 c7 -15 15 -37 79 -225 l38 -110
11 35 c11 35 68 200 96 275 l14 40 63 0 63 0 1 -220 c0 -121 -1 -226 -3 -232
-3 -8 -22 -13 -48 -13 l-44 0 -1 163 c0 92 -4 153 -8 142 -11 -28 -51 -140
-68 -195 -32 -100 -39 -110 -80 -110 -43 0 -32 -20 -105 192 -23 71 -45 128
-48 128 -3 0 -5 -71 -5 -157 l0 -158 -42 -3 -43 -3 0 236 0 236 61 -3 c43 -2
64 -8 69 -18z m1198 -22 l3 -38 -45 0 -46 0 0 41 0 40 43 -3 c41 -3 42 -4 45
-40z m-1532 -77 c38 -18 84 -63 84 -83 0 -11 -12 -22 -127 -115 -46 -36 -83
-70 -83 -75 0 -18 92 -8 118 13 l27 21 5 -24 c11 -43 0 -76 -29 -86 -85 -33
-158 -15 -213 52 -35 41 -38 50 -40 113 -1 45 4 78 14 98 48 90 153 127 244
86z m1006 -12 c47 -24 90 -102 90 -164 0 -47 -32 -118 -66 -147 -11 -10 -44
-25 -71 -33 -45 -13 -56 -14 -100 0 -80 23 -125 77 -140 162 -5 34 -2 53 18
96 49 106 159 142 269 86z m787 21 c34 -10 85 -50 102 -82 7 -13 -11 -33 -96
-103 -58 -47 -105 -90 -105 -96 0 -15 84 -10 106 6 32 24 44 18 44 -24 0 -45
-10 -55 -68 -71 -81 -21 -181 35 -213 118 -27 71 3 180 62 224 44 33 112 44
168 28z m-619 -32 c7 -18 23 -59 36 -91 13 -32 24 -70 24 -85 0 -48 27 -4 62
103 l33 100 37 1 c21 1 42 -4 47 -10 5 -7 -5 -38 -25 -81 -18 -38 -34 -76 -34
-83 0 -7 -10 -31 -21 -54 -12 -23 -27 -60 -33 -82 -11 -39 -14 -41 -53 -44
-41 -3 -41 -3 -59 45 -9 26 -30 78 -46 115 -15 36 -28 71 -28 78 0 6 -9 29
-21 51 -27 53 -20 69 29 69 35 0 41 -3 52 -32z m360 -154 l0 -174 -45 0 -45 0
0 173 c0 96 2 176 4 178 3 3 23 3 45 1 l41 -4 0 -174z m2375 -203 c-15 -13
-162 -49 -225 -56 -70 -7 -51 2 80 36 109 28 161 36 145 20z m-5417 -91 c28
-16 -48 -11 -83 6 -30 14 -30 14 18 9 27 -3 56 -9 65 -15z m2512 -1 c23 -1 22
-2 -5 -8 -16 -4 -68 -5 -115 -2 -73 4 -79 6 -45 12 22 4 63 5 90 3 28 -2 61
-4 75 -5z m-3776 -25 c25 -10 19 -26 -6 -19 -31 10 -47 25 -26 25 9 0 23 -3
32 -6z"/>
<path d="M2375 2951 c-22 -4 -46 -10 -52 -14 -10 -6 -13 -101 -13 -417 l0
-409 65 -37 c92 -51 146 -65 255 -67 87 -1 100 1 162 30 91 43 145 96 193 189
l40 77 0 146 0 146 -40 80 c-47 97 -134 187 -218 228 -99 48 -266 69 -392 48z"/>
<path d="M3869 2697 c-284 -95 -345 -144 -357 -283 -4 -55 -1 -68 22 -108 52
-90 149 -132 284 -124 124 8 215 67 263 172 16 35 19 68 19 224 l0 182 -22 0
c-13 -1 -107 -29 -209 -63z"/>
<path d="M7855 3291 c-66 -11 -166 -64 -226 -119 -80 -73 -115 -154 -128 -292
-11 -123 -6 -164 19 -157 16 4 549 318 663 390 26 17 47 37 47 44 0 18 -44 59
-95 88 -67 38 -201 60 -280 46z"/>
<path d="M4424 1570 c-34 -14 -64 -59 -64 -96 0 -19 3 -34 6 -34 6 0 79 57
106 83 10 9 23 17 28 17 6 0 10 7 10 15 0 8 -6 15 -12 15 -7 0 -22 2 -33 5
-11 2 -30 0 -41 -5z"/>
<path d="M5382 1552 c-50 -39 -46 -143 7 -175 45 -26 88 -22 122 12 31 32 36
61 19 122 -16 57 -98 79 -148 41z"/>
<path d="M6235 1566 c-34 -15 -55 -52 -55 -96 0 -34 5 -37 27 -14 9 9 40 34
70 56 30 23 50 45 46 49 -16 16 -59 18 -88 5z"/>
</g>
</svg>
